<?xml version="1.0" standalone="no"?>
<!DOCTYPE svg PUBLIC "-//W3C//DTD SVG 20010904//EN"
 "http://www.w3.org/TR/2001/REC-SVG-20010904/DTD/svg10.dtd">
<svg version="1.0" xmlns="http://www.w3.org/2000/svg"
 width="260.000000pt" height="260.000000pt" viewBox="0 0 260.000000 260.000000"
 preserveAspectRatio="xMidYMid meet">
<metadata>
Created by potrace 1.11, written by Peter Selinger 2001-2013
</metadata>
<g transform="translate(0.000000,260.000000) scale(0.100000,-0.100000)"
fill="#000000" stroke="none">
<path d="M452 2093 c4 -476 5 -502 26 -578 79 -287 295 -514 572 -603 57 -19
172 -42 208 -42 9 0 12 50 12 219 0 233 0 231 -48 231 -34 0 -143 61 -193 107
-54 50 -88 101 -116 173 -14 38 -18 95 -23 385 l-5 340 -29 63 c-60 129 -177
202 -327 202 l-80 0 3 -497z"/>
<path d="M1130 2574 c-36 -7 -84 -21 -107 -30 l-43 -16 0 -265 0 -265 48 43
c170 151 426 146 583 -11 53 -53 105 -148 115 -209 l7 -41 221 0 222 0 -8 68
c-42 351 -321 655 -670 726 -95 20 -278 20 -368 0z"/>
<path d="M1727 1651 c-15 -112 -112 -237 -230 -296 -38 -19 -78 -35 -88 -35
-50 0 -49 3 -49 -232 l0 -219 58 7 c394 47 703 356 751 750 l7 64 -221 0 -222
0 -6 -39z"/>
<path d="M450 665 l0 -645 80 0 c103 0 173 26 243 90 30 28 65 73 82 107 l30
58 3 301 3 301 -48 28 c-127 74 -259 202 -337 328 -27 42 -50 77 -52 77 -2 0
-4 -290 -4 -645z"/>
</g>
</svg>
